<svg width="640" height="480" xmlns="http://www.w3.org/2000/svg">
 <!-- Created with Method Draw - http://github.com/duopixel/Method-Draw/ -->
 <g>
  <title>background</title>
  <rect fill="#fff" id="canvas_background" height="770" width="1026" y="-1" x="-1"/>
 </g>
 <g>
  <title>Layer 1</title>
  <path d="m98.5,56.5c0,1 0,3 0,5c0,1 0,3 0,4c0,1 0,2 0,3c0,1 0,2 0,5c0,1 0,3 0,4c0,1 0,3 0,4c0,1 0,2 0,3c0,1 0,2 0,4c0,1 0,2 0,3c0,1 0,2 0,4c0,1 0,3 0,5c0,1 0,2 0,4c0,1 0,2 0,3c0,1 0,2 0,4c0,2 0,3 0,4c0,1 0,3 0,5c0,1 0,3 0,4c0,3 0,4 0,5c0,1 0,2 0,3c0,2 0,3 0,5c0,1 0,3 0,5c0,2 0,3 0,5c0,2 0,3 0,5c0,1 0,2 0,4c0,2 0,3 0,4c0,1 0,2 0,4c0,1 0,2 0,3c0,1 0,2 0,3c0,2 -0.382683,3.076126 0,4c0.541199,1.306564 0.617317,2.076126 1,3c0.541199,1.306564 1,2 1,3c0,1 -0.525734,2.149353 0,3c1.175568,1.902115 3.823746,2.486252 6,3c0.973251,0.229752 2.693436,0.458801 4,1c0.923882,0.38269 2,1 3,1c1,0 3,0 4,0c1,0 1.823746,0.486252 4,1c1.946495,0.459503 4.585785,-1.414215 6,0c0.707108,0.707108 1,1 2,1c2,0 4,0 6,0c1,0 2,0 3,0c3,0 4,0 6,0c1,0 3,0 5,0c1,0 3,0 4,0c1,0 2,0 3,0c2,0 2,1 3,1c2,0 4,0 7,0c1,0 2,0 3,0c3,0 4,0 5,0c3,0 5,0 7,0c2,0 3,1 6,1c1,0 2,0 3,0c1,0 2,0 4,0c2,0 3,0 5,0c1,0 2,0 3,0c1,0 2,0 4,0c1,0 3,0 4,0c1,0 2,-1 3,-1c1,0 2.693436,-1.458801 4,-2c0.923874,-0.38269 2.076126,-0.61731 3,-1c1.306564,-0.541199 2.458801,-2.693436 3,-4c0.38269,-0.923874 0,-2 0,-4c0,-1 0,-3 0,-4c0,-1 0,-2 0,-3c0,-2 0,-4 0,-5c0,-1 0,-2 0,-4c0,-2 0,-3 0,-4c0,-3 0,-4 0,-5c0,-1 -0.458801,-3.693436 -1,-5c-0.38269,-0.923874 0,-2 0,-4c0,-2 0,-3 0,-5c0,-1 0,-2 0,-3c0,-3 0,-4 0,-5c0,-1 0,-4 0,-5c0,-1 0,-3 0,-5c0,-1 0,-2 0,-3c0,-1 0,-2 0,-3c0,-2 0,-5 0,-6c0,-3 0,-5 0,-6c0,-1 0,-2 0,-3c0,-1 0,-3 0,-4c0,-2 0,-4 0,-5c0,-3 0,-5 0,-6c0,-2 -0.320358,-4.025826 0,-6c0.506546,-3.121445 1,-5 1,-8c0,-1 0,-3 0,-4c0,-2 0,-3 0,-4c0,-1 0,-2 0,-3c0,-1 0,-3 0,-4c0,-1 0,-2 0,-3c0,-1 0,-3 0,-3c0,0 0,0 0,-2c0,0 0,-1 0,-1c0,0 0,0 0,-1c0,0 0,0 0,0c0,0 0,0 0,0c0,0 0,0 -2,-1c0,0 0,0 -1,0c0,0 -1,0 -1,0c-2,0 -2,0 -4,0c0,0 -2,0 -2,0c0,0 -1,0 -1,0c-2,0 -2,0 -4,0c0,0 -1,0 -2,0c-2,0 -6,0 -6,0c-1,0 -1,0 -2,0c-1,0 -1,0 -2,0c-1,0 -1,0 -3,0c-1,0 -1,0 -2,0c-1,0 -1,0 -2,0c-1,0 -1,0 -2,0c-2,0 -3,0 -4,0c-1,0 -2,0 -3,0c-2,0 -3,0 -4,0c-1,0 -1.693436,0.458805 -3,1c-0.923874,0.382683 -3,0 -4,0c-2,0 -3,0 -5,0c-2,0 -3,0 -4,0c-1,0 -2,0 -4,0c-1,0 -2,0 -3,0c-2,0 -3,0 -4,0c-1,0 -3,0 -4,0c-1,0 -2,0 -3,0c-1,0 -3,0 -4,0c-2,0 -3,0 -4,0c-2,0 -3.292892,-0.707108 -4,0c-0.707108,0.707108 -1,1 -3,1c-2,0 -4,0 -5,0c-2,0 -3,0 -5,0c-1,0 -2,0 -3,0c-2,0 -3,0 -5,0c-1,0 -3,0 -4,0c-1,0 -3,0 -4,0c-1,0 -2.292892,-0.707108 -3,0c-0.707108,0.707108 0,2 0,3c0,1 0,2 0,3l0,1" id="svg_1" stroke-opacity="null" stroke-width="1.5" stroke="#000" fill="#C48157"/>
  <path d="m250.5,45.5c0,1 0,5 0,6c0,1 0,2 0,3c0,1 0,3 0,4c0,1 0,2 0,3c0,1 0,2 0,4c0,1 0,2 0,3c0,3 -0.160187,5.012909 0,6c0.506546,3.121445 1,4 1,5c0,1 0,3 0,5c0,1 0,3 0,5c0,1 0,4 0,5c0,3 0,5 0,6c0,2 0,3 0,5c0,3 0,5 0,7c0,2 0,5 0,7c0,3 0,6 0,8c0,2 0,7 0,10c0,3 1,6 1,10c0,4 0,8 0,12c0,3 -0.492691,7.024338 0,12c0.502441,5.074203 1.496231,6.907791 2,11c0.24437,1.985016 0.420425,4.085815 1,6c1.04483,3.450851 1.802917,4.009735 2,6c0.502441,5.074203 0.679626,7.025818 1,9c0.506531,3.121445 1,6 1,8c0,3 0.486267,5.823746 1,8c0.229767,0.973251 0,4 0,5c0,3 0,6 0,8c0,4 0,8 0,11c0,3 0,5 0,8c0,3 0,5 0,6c0,2 0,5 0,8c0,2 0,3 0,6c0,1 0,3 0,6c0,1 0,2 0,4c0,2 0,3 0,6c0,2 0,3 0,5c0,3 0,4 0,6c0,1 0,2 0,4c0,2 0,3 0,5c0,2 -1,4 -1,5c0,1 0,2 0,3c0,2 -0.292908,2.292908 -1,3c-0.707092,0.707092 0,2 0,2c3,0 4,0 5,0c1,0 2,0 4,0c1,0 2,0 4,0c2,0 3,0 5,0c1,0 2.007507,0.122192 3,0c4.092224,-0.503784 5.014984,-0.755646 7,-1c4.092224,-0.503784 5,-1 8,-1c2,0 4,0 5,0c1,0 3,0 4,0c1,0 3,0 4,0c1,0 2,0 3,0c2,0 5,0 6,0c2,0 3,0 6,0c2,0 4,0 6,0c1,0 2,0 4,0c2,0 4,0 5,0c4,0 6,0 8,0c1,0 4,0 5,0c2,0 4,0 7,0c1,0 3,0 4,0c3,0 5,0 7,0c2,0 3,0 5,0c2,0 3,0 4,0c2,0 5,0 6,0c2,0 3,0 6,0c1,0 3,0 4,0c1,0 2,0 3,0c2,0 2.796997,-1.2565 4,-2c2.690002,-1.662506 4.693451,-1.458801 6,-2c0.923889,-0.38269 2,0 3,0c1,0 3,0 4,0c1,0 1.197083,-1.009735 1,-3c-0.502441,-5.074219 -1,-6 -1,-8c0,-2 0,-7 0,-10c0,-3 0,-6 0,-8c0,-2 0,-6 0,-8c0,-4 0.378204,-8.036102 0,-10c-1.018372,-5.287994 -2,-8 -2,-11c0,-3 0,-6 0,-9c0,-2 0.68927,-4.080246 0,-7c-0.513733,-2.176254 -1,-5 -1,-8c0,-4 0.68927,-7.080246 0,-10c-0.513733,-2.176254 -1,-4 -1,-6c0,-3 0,-5 0,-6c0,-2 0,-6 0,-7c0,-3 0,-8 0,-10c0,-3 0,-6 0,-10c0,-2 0,-3 0,-5c0,-1 0,-2 0,-3c0,-1 0,-2 0,-4c0,-3 0,-4 0,-5c0,-2 0,-4 0,-5c0,-2 0,-3 0,-4c0,-4 0,-5 0,-7c0,-3 0,-6 0,-9c0,-2 0,-6 0,-8c0,-4 -0.68927,-5.080246 0,-8c0.513733,-2.176254 1,-4 1,-8c0,-3 1,-5 1,-8c0,-1 -0.48056,-3.038734 0,-6c0.506531,-3.121445 1,-5 1,-8c0,-1 -0.48056,-4.038734 0,-7c0.506531,-3.121445 1,-7 1,-9c0,-2 0,-3 0,-6c0,-2 0,-3 0,-4c0,-3 0,-5 0,-6c0,-3 0,-4 0,-6c0,-1 0,-3 0,-4c0,-1 0,-3 0,-4c0,-1 0,-2 0,-3c0,-1 0,-4 0,-5c0,-1 -2,-1 -4,-1c-1,0 -2,0 -3,0c-3,0 -4,0 -6,0c-3,0 -7,0 -10,0c-2,0 -2,0 -6,0c-1,0 -3,0 -6,0c-2,0 -2,0 -5,0c-1,0 -1,0 -4,0c-3,0 -3,0 -4,0c-2,0 -2,0 -5,0c-3,0 -3,0 -5,0c-4,0 -7,0 -7,0c-2,0 -4,0 -4,0c-4,0 -6,0 -6,0c-2,0 -5,0 -5,0c-1,0 -3,0 -3,0c-3,0 -4,0 -4,0c-3,0 -4,0 -4,0c-1,0 -3,0 -3,0c-1,0 -3,0 -3,0c0,1 -1,1 -1,1c-2,0 -2,0 -6,0c0,0 -2,0 -3,0c0,0 -2,0 -2,0c-2,0 -3,0 -3,0c-2,0 -2,0 -5,1c0,0 -2,0 -5,0c0,0 -1,0 -1,0c-2,0 -4,0 -4,0c-2,0 -2,0 -3,0c-3,0 -5,0 -6,0c0,0 0,0 -2,0c-1,0 -1,0 -3,0c-2,0 -3,0 -4,0c-2,0 -4,0 -5,0c-2,0 -3,0 -4,0c-1,0 -2,0 -4,0c-1,0 -2,0 -3,0c-1,0 -2,0 -3,0l-1,2l-1,0" id="svg_2" stroke-opacity="null" stroke-width="1.5" stroke="#000" fill="#FFAFCC"/>
  <path d="m437.5,41.5c0,2 -0.38269,3.076122 0,4c0.541199,1.306564 1,2 1,4c0,1 0,3 0,4c0,1 0,2 0,4c0,1 0,2 0,3c0,2 0,4 0,5c0,1 0,2 0,3c0,2 0,3 0,5c0,1 0,2 0,3c0,2 0,3 0,5c0,3 0,5 0,7c0,2 0,3 0,5c0,1 0,3 0,4c0,2 0,3 0,7c0,2 0,4 0,8c0,2 0,3 0,5c0,3 0,4 0,6c0,2 0,5 0,7c0,1 0,3 0,6c0,1 0,4 0,5c0,2 0,4 0,6c0,2 0,4 0,6c0,1 0,4 0,5c0,1 0,3 0,4c0,1 0,2 0,3c0,1 0,3 0,5c0,1 0,2 0,3c0,1 0,2 0,4c0,1 4,1 6,1c1,0 2,0 3,0c1,0 4,0 5,0c2,0 4,0 6,0c1,0 2,0 3,0c1,0 2,0 4,0c2,0 5,0 6,0c1,0 3,0 4,0c2,0 3,0 6,0c1,0 4,0 7,0c3,0 4,0 6,0c2,0 3,0 6,0c1,0 3,0 6,0c4,0 7,0 10,0c2,0 4,0 5,0c1,0 3,0 4,0c1,0 3,0 5,0c1,0 2,0 4,0c2,0 4,0 6,0c2,0 2,-1 3,-1c2,0 4,0 5,0c1,0 2,0 3,0c1,0 2,0 4,0c1,0 2,0 3,0c1,0 2,-1 3,-1c2,0 4,0 5,0c2,0 4,0 5,0c1,0 2,0 2,-2c0,-2 -0.493469,-2.878555 -1,-6c-0.320374,-1.974182 0,-4 0,-5c0,-3 0,-6 0,-7c0,-1 0,-3 0,-6c0,-3 0,-5 0,-7c0,-4 -0.496216,-6.907791 -1,-11c-0.244385,-1.985016 0,-3 0,-6c0,-1 0,-4 0,-6c0,-4 0,-6 0,-9c0,-3 0,-5 0,-8c0,-2 0,-3 0,-4c0,-1 -0.486267,-2.823746 -1,-5c-0.459534,-1.946495 0,-3 0,-5c0,-1 -0.493469,-1.878555 -1,-5c-0.160156,-0.987091 0,-3 0,-4c0,-2 0,-6 0,-8c0,-2 0,-4 0,-6c0,-1 0,-3 0,-5c0,-4 0,-6 0,-8c0,-2 0,-4 0,-5c0,-1 0,-2 0,-3c0,-2 0,-4 0,-5c0,-1 0,-2 -1,-2c-1,0 -2,-2 -3,-2c-2,0 -4,0 -5,0c-1,0 -2.82373,-0.486256 -5,-1c-3.893005,-0.91901 -7,-1 -9,-1c-2,0 -3,0 -5,0c-2,0 -4,0 -7,0c-2,0 -3,0 -5,0c-2,0 -5,0 -8,0c-3,0 -5,0 -8,0c-2,0 -4,0 -6,0c-2,0 -4,0 -7,0c-1,0 -3,0 -5,0c-2,0 -3,0 -4,0c-1,0 -2,0 -3,0c-1,0 -3,0 -4,0c-2,0 -3,0 -4,0c-2,0 -4,0 -5,0c-1,0 -3,0 -5,0c-1,0 -2,0 -3,0c-1,0 -2,0 -3,0c-1,0 -3,0 -4,0c-1,0 -2,0 -4,0c-2,0 -3,0 -4,0c-1,0 -2,0 -3,0c-1,0 -3.026764,-0.229752 -4,0c-2.176239,0.513744 -3,1 -4,1c-1,0 -2,0 -3,0c-1,0 -1,1 -1,2c0,1 0,2 0,3l0,2l0,2l0,1" id="svg_3" stroke-opacity="null" stroke-width="1.5" stroke="#000" fill="#FFFA8D"/>
 </g>
</svg>